<svg xmlns="http://www.w3.org/2000/svg" version="1.1" xmlns:xlink="http://www.w3.org/1999/xlink" xmlns:svgjs="http://svgjs.dev/svgjs" id="BgenPttrnSvgRootPreview" width="100%" height="100%"><defs><pattern x="0" y="0" width="1" height="1" patternUnits="userSpaceOnUse" id="BgenPttrnLayer1"><g id="PatternRootContent1"><g id="BgenPttrnLayer1background"><rect width="1" height="1" id="BgenPttrnBackground1" class="color_1 fill_color_1" fill="#b0b0b0"></rect></g></g></pattern><pattern x="0" y="0" width="40" height="70" patternUnits="userSpaceOnUse" id="BgenPttrnLayer2" patternTransform="matrix(1,0,0,1,0,0)"><g id="PatternRootContent2"><g id="BgenPttrnLayer2Element2"><use xlink:href="#BgenPttrnElement2" x="16.017478942871094" y="-40.794755935668945" transform="translate(40, -17.5) scale(1) translate(-40, 17.5) rotate(90, 40, -17.5)"></use><use xlink:href="#BgenPttrnElement2" x="-23.982521057128906" y="-40.794755935668945" transform="translate(0, -17.5) scale(1) translate(0, 17.5) rotate(90, 0, -17.5)"></use><use xlink:href="#BgenPttrnElement2" x="-3.9825210571289062" y="-5.794755935668945" transform="translate(20, 17.5) scale(1) translate(-20, -17.5) rotate(90, 20, 17.5)"></use><use xlink:href="#BgenPttrnElement2" x="-43.982521057128906" y="-5.794755935668945" transform="translate(-20, 17.5) scale(1) translate(20, -17.5) rotate(90, -20, 17.5)"></use><use xlink:href="#BgenPttrnElement2" x="36.017478942871094" y="-5.794755935668945" transform="translate(60, 17.5) scale(1) translate(-60, -17.5) rotate(90, 60, 17.5)"></use><use xlink:href="#BgenPttrnElement2" x="16.017478942871094" y="29.205244064331055" transform="translate(40, 52.5) scale(1) translate(-40, -52.5) rotate(90, 40, 52.5)"></use><use xlink:href="#BgenPttrnElement2" x="-23.982521057128906" y="29.205244064331055" transform="translate(0, 52.5) scale(1) translate(0, -52.5) rotate(90, 0, 52.5)"></use><use xlink:href="#BgenPttrnElement2" x="-3.9825210571289062" y="64.20524406433105" transform="translate(20, 87.5) scale(1) translate(-20, -87.5) rotate(90, 20, 87.5)"></use><use xlink:href="#BgenPttrnElement2" x="-3.9825210571289062" y="64.20524406433105" transform="translate(20, 87.5) scale(1) translate(-20, -87.5) rotate(90, 20, 87.5)"></use></g></g></pattern><symbol id="BgenPttrnElement2"><g class="color_3 fill_color_3" fill="#783434"><path d="M28.728,21.296628952026367C28.952,21.801,28.723,22.398,28.219,22.622312545776367C27.715,22.847,27.127,22.621,26.903,22.117013931274414L22.557,14.686118125915527L22.331,14.299286842346191C21.882,13.292,22.337,12.106,23.345,11.657254219055176C24.353,11.209,25.538,11.664,25.987,12.671435356140137L26.123,13.098531723022461L28.728,21.296628952026367M27.029,6.023177623748779A8.000000596746792,8.000000596746792,0,0,0,16.693,10.625C15.901,12.688,16.025,14.878,16.849,16.74752426147461L15.028,17.558574676513672C13.986,15.22,13.837,12.485,14.826,9.90814208984375A10.000000745933491,10.000000745933491,0,0,1,27.745,4.156A10.000000745933491,10.000000745933491,0,0,1,33.498,17.076L31.63,16.3587646484375A8.000000596746792,8.000000596746792,0,0,0,27.029,6.023M20.22,23.761207580566406A2.000000149186698,2.000000149186698,0,0,1,19.069,21.177A2.000000149186698,2.000000149186698,0,0,1,21.653,20.027A2.000000149186698,2.000000149186698,0,0,1,22.804,22.611A2.000000149186698,2.000000149186698,0,0,1,20.22,23.761Z" transform="matrix(1,0,0,1,0,0)"></path><path d="M26.08,33.14931106567383C25.532,33.092,25.129,32.594,25.187,32.0457649230957C25.244,31.497,25.734,31.101,26.282,31.158422470092773L34.89,31.110435485839844L35.339,31.107772827148438C36.436,31.223,37.235,32.21,37.12,33.307098388671875C37.004,34.404,36.017,35.204,34.92,35.08807373046875L34.482,34.99228286743164L26.08,33.14931106567383M40.157,39.314353942871094A8.000000386323284,8.000000386323284,0,0,0,41.34,28.063C39.949,26.345,37.991,25.357,35.959,25.136585235595703L36.168,23.153467178344727C38.713,23.421,41.157,24.659,42.894,26.803979873657227A10.000000482904104,10.000000482904104,0,0,1,41.416,40.869A10.000000482904104,10.000000482904104,0,0,1,27.351,39.391L28.905,38.13174819946289A8.000000386323284,8.000000386323284,0,0,0,40.157,39.314M28.2,24.5485782623291A2.000000096580821,2.000000096580821,0,0,1,31.013,24.844A2.000000096580821,2.000000096580821,0,0,1,30.717,27.657A2.000000096580821,2.000000096580821,0,0,1,27.904,27.362A2.000000096580821,2.000000096580821,0,0,1,28.2,24.549Z" transform="matrix(1,0,0,1,0,0)"></path><path d="M17.139,24.929895401000977C17.464,24.484,18.096,24.384,18.542,24.7077579498291C18.988,25.032,19.087,25.654,18.762,26.100399017333984L14.5,33.579280853271484L14.278,33.96877670288086C13.63,34.861,12.375,35.06,11.483,34.41148376464844C10.591,33.763,10.392,32.509,11.04,31.61632537841797L11.342,31.28502082824707L17.139,24.929895401000977M4.762,34.038307189941406A8.000000169396548,8.000000169396548,0,0,0,13.915,40.688C16.098,40.343,17.932,39.141,19.139,37.49172592163086L20.752,38.663795471191406C19.248,40.735,16.954,42.232,14.228,42.66371154785156A10.000000211745686,10.000000211745686,0,0,1,2.786,34.351A10.000000211745686,10.000000211745686,0,0,1,11.099,22.91L11.412,24.88532257080078A8.000000169396548,8.000000169396548,0,0,0,4.762,34.038M23.528,31.066049575805664A2.000000042349137,2.000000042349137,0,0,1,21.865,33.354A2.000000042349137,2.000000042349137,0,0,1,19.577,31.692A2.000000042349137,2.000000042349137,0,0,1,21.24,29.404A2.000000042349137,2.000000042349137,0,0,1,23.528,31.066Z" transform="matrix(1,0,0,1,0,0)"></path></g></symbol></defs><rect width="100%" height="100%" id="BgenPttrnRctLayer1" fill="url(&quot;#BgenPttrnLayer1&quot;)"></rect><rect width="100%" height="100%" id="BgenPttrnRctLayer2" fill="url(&quot;#BgenPttrnLayer2&quot;)"></rect></svg>